<svg width="14" height="16" viewBox="0 0 14 16" fill="none" xmlns="http://www.w3.org/2000/svg">
<path d="M6.9111 2.44851L3.4501 5.90952C2.76566 6.59402 2.29957 7.46611 2.11076 8.41551C1.92195 9.36491 2.0189 10.349 2.38936 11.2433C2.75982 12.1376 3.38714 12.9019 4.192 13.4397C4.99686 13.9775 5.94311 14.2645 6.9111 14.2645C7.87909 14.2645 8.82534 13.9775 9.63021 13.4397C10.4351 12.9019 11.0624 12.1376 11.4328 11.2433C11.8033 10.349 11.9003 9.36491 11.7114 8.41551C11.5226 7.46611 11.0565 6.59402 10.3721 5.90952L6.9111 2.44851ZM6.9111 0.471191L11.3608 4.92086C12.2408 5.80091 12.8401 6.92217 13.0829 8.14284C13.3257 9.36351 13.2011 10.6288 12.7248 11.7786C12.2485 12.9285 11.442 13.9112 10.4072 14.6027C9.37232 15.2941 8.15568 15.6632 6.9111 15.6632C5.66652 15.6632 4.44989 15.2941 3.41505 14.6027C2.38022 13.9112 1.57366 12.9285 1.09738 11.7786C0.621094 10.6288 0.496472 9.36351 0.739273 8.14284C0.982073 6.92217 1.58139 5.80091 2.46144 4.92086L6.9111 0.471191Z" fill="white"/>
</svg>
